<?xml version="1.0" standalone="no"?>
<!DOCTYPE svg PUBLIC "-//W3C//DTD SVG 20010904//EN"
 "http://www.w3.org/TR/2001/REC-SVG-20010904/DTD/svg10.dtd">
<svg version="1.0" xmlns="http://www.w3.org/2000/svg"
 width="980.000000pt" height="980.000000pt" viewBox="0 0 980.000000 980.000000"
 preserveAspectRatio="xMidYMid meet">

<g transform="translate(0.000000,980.000000) scale(0.100000,-0.100000)"
fill="#000000" stroke="none">
<path d="M1095 9790 c-548 -6 -523 -3 -659 -71 -138 -68 -284 -217 -355 -362
-81 -167 -74 96 -78 -2667 -2 -1356 0 -2667 4 -2915 l8 -450 41 -86 c119 -250
311 -418 531 -464 82 -18 446 -33 866 -38 l307 -3 0 203 0 203 -462 0 c-515 0
-624 7 -697 44 -59 31 -136 113 -179 193 l-32 61 1 2518 c0 1386 4 2670 8
2854 8 317 9 338 30 378 31 60 131 156 199 189 l57 28 2980 3 c1639 2 3099 -1
3246 -6 l265 -9 62 -33 c75 -40 135 -103 169 -177 24 -52 27 -73 34 -252 4
-108 8 -528 8 -933 l1 -738 200 0 200 0 -1 448 c0 625 -15 1372 -29 1466 -21
148 -78 255 -203 384 -98 100 -199 165 -347 221 l-55 21 -2810 -2 c-1545 -1
-3035 -5 -3310 -8z"/>
<path d="M780 6270 l0 -2750 490 0 490 0 -2 202 -3 203 -292 3 c-224 2 -293 5
-293 15 -4 1036 2 4673 8 4678 4 4 1282 9 2840 12 l2832 5 0 -689 0 -689 205
0 205 0 0 880 0 880 -3240 0 -3240 0 0 -2750z"/>
<path d="M2970 7051 c-395 -6 -395 -6 -467 -32 -128 -47 -201 -95 -303 -198
-76 -77 -105 -114 -143 -187 -94 -181 -89 -117 -99 -1204 -11 -1124 5 -4715
22 -4820 6 -37 27 -100 49 -145 92 -193 243 -333 448 -417 l92 -38 2748 -6
c2979 -6 3828 1 3923 31 233 74 426 258 513 488 l30 82 9 335 c5 184 7 1501 6
2925 l-4 2590 -40 90 c-75 170 -182 299 -327 393 -108 70 -171 92 -302 103
-123 11 -5514 19 -6155 10z m6015 -400 c145 -7 177 -12 213 -30 61 -31 123
-96 171 -178 l41 -71 -1 -2519 c0 -1385 -4 -2669 -8 -2854 -8 -318 -9 -339
-30 -382 -26 -53 -132 -157 -194 -189 l-42 -22 -920 -9 c-1191 -10 -5401 -2
-5516 11 -102 12 -171 43 -234 107 -65 64 -91 124 -99 225 -4 47 -7 1340 -6
2873 l0 2789 32 46 c49 71 104 127 161 164 l51 33 261 5 c433 9 5937 10 6120
1z"/>
<path d="M3039 6273 l-286 -3 -6 -98 c-4 -53 -7 -1288 -7 -2745 l0 -2647 3138
2 3137 3 3 2748 2 2747 -2847 -2 c-1567 -2 -2977 -4 -3134 -5z m5591 -2742 c0
-1290 -3 -2347 -6 -2350 -3 -3 -1238 -8 -2745 -10 l-2739 -3 0 2356 0 2356
2745 -2 2745 -3 0 -2344z"/>
</g>
</svg>
